<?xml version="1.0" encoding="iso-8859-1"?>
<!-- Uploaded to: SVG Repo, www.svgrepo.com, Generator: SVG Repo Mixer Tools -->
<svg version="1.1" id="Layer_1" xmlns="http://www.w3.org/2000/svg" xmlns:xlink="http://www.w3.org/1999/xlink" 
	 viewBox="0 0 512 512" xml:space="preserve">
<rect x="205.322" y="364.084" style="fill:#9A4C00;" width="31.347" height="59.099"/>
<rect x="275.331" y="364.084" style="fill:#723700;" width="31.347" height="59.099"/>
<rect x="190.412" y="407.51" style="fill:#A17852;" width="131.176" height="104.49"/>
<path style="fill:#E70020;" d="M385.275,234.736l-0.146,0.293l-72.15,144.729H199.022l-72.296-145.021
	c-2.079-4.389-50.385-108.387-6.531-177.643c22.674-35.809,64.742-54.93,125.127-56.916C248.822,0.063,252.374,0,256,0
	c4.159,0,8.234,0.073,12.236,0.23c59.549,2.257,101.083,21.358,123.57,56.863C435.66,126.349,387.354,230.348,385.275,234.736z"/>
<rect x="256" y="407.51" style="fill:#735538;" width="65.588" height="104.49"/>
<path style="fill:#990013;" d="M385.275,234.736l-0.146,0.293l-72.15,144.729H256V0c4.159,0,8.234,0.073,12.236,0.23
	c59.549,2.257,101.083,21.358,123.57,56.863C435.66,126.349,387.354,230.348,385.275,234.736z"/>
<path style="fill:#FFFFFF;" d="M262.499,379.758h-12.988c-103.758-235.53-8.882-374-4.942-379.58C248.069,0.063,251.622,0,255.248,0
	H256c3.897,0.01,7.722,0.084,11.483,0.23C271.924,6.562,365.955,144.906,262.499,379.758z"/>
<path style="fill:#C8C6CD;" d="M262.499,379.758H256V0c3.897,0.01,7.722,0.084,11.483,0.23
	C271.924,6.562,365.955,144.906,262.499,379.758z"/>
</svg>